<?xml version="1.0" encoding="UTF-8"?>
<!DOCTYPE svg PUBLIC "-//W3C//DTD SVG 1.1//EN" "http://www.w3.org/Graphics/SVG/1.1/DTD/svg11.dtd">
<!-- Creator: CorelDRAW 2020 (64-Bit) -->
<svg xmlns="http://www.w3.org/2000/svg" xml:space="preserve" width="200px" height="198px" version="1.1" style="shape-rendering:geometricPrecision; text-rendering:geometricPrecision; image-rendering:optimizeQuality; fill-rule:evenodd; clip-rule:evenodd"
viewBox="0 0 200 198.27"
 xmlns:xlink="http://www.w3.org/1999/xlink"
 xmlns:xodm="http://www.corel.com/coreldraw/odm/2003">
 <defs>
  <style type="text/css">
   <![CDATA[
    .fil0 {fill:white}
   ]]>
  </style>
 </defs>
 <g id="Слой_x0020_1">
  <metadata id="CorelCorpID_0Corel-Layer"/>
  <g id="_2144849959744">
   <path class="fil0" d="M145.71 0.86c24.35,27.01 20.22,55.85 2.01,72.51 -2.06,-0.24 -3.44,-0.4 -5.5,-0.64 11.4,-16.79 16.09,-39.39 -1.91,-60.72 -32.71,1.57 -61.02,40.11 -43.82,76.87 -31.46,-29.88 0.92,-86.17 49.22,-88.02z"/>
   <path class="fil0" d="M22.39 17.87c33.22,-14.81 59.36,-1.97 69.59,20.5 -0.87,1.88 -1.45,3.15 -2.32,5.03 -12.44,-16.03 -32.48,-27.47 -58.33,-16.94 -8.62,31.59 19.29,70.43 59.56,65.43 -38.14,20.68 -81.67,-27.51 -68.5,-74.02z"/>
   <path class="fil0" d="M0.46 140.41c-3.82,-36.16 16.48,-57.06 41,-59.84 1.53,1.41 2.55,2.35 4.07,3.76 -19.09,6.88 -36.16,22.4 -34.14,50.24 27.38,17.96 72.94,3.42 80.63,-36.43 7.89,42.67 -51.39,69.17 -91.56,42.27z"/>
   <path class="fil0" d="M110.23 199.14c-35.57,-7.54 -49.18,-33.3 -44.24,-57.49 1.8,-1.01 3.02,-1.69 4.82,-2.71 0.65,20.29 10.14,41.32 37.24,48 25.54,-20.49 25.79,-68.32 -9.73,-87.95 43.01,5.69 49.9,70.26 11.91,100.15z"/>
   <path class="fil0" d="M200 112.89c-18.16,31.5 -46.87,36.48 -68.34,24.32 -0.41,-2.04 -0.68,-3.4 -1.09,-5.43 19.49,5.65 42.43,3.12 57.15,-20.59 -11.59,-30.62 -57,-45.63 -86.64,-17.92 18.7,-39.15 82.24,-25.75 98.92,19.62z"/>
   <path class="fil0" d="M95.76 87.43c3.76,0 6.81,3.05 6.81,6.8 0,3.76 -3.05,6.81 -6.81,6.81 -3.76,0 -6.8,-3.05 -6.8,-6.81 0,-3.75 3.04,-6.8 6.8,-6.8z"/>
  </g>
 </g>
</svg>
