<?xml version="1.0" encoding="UTF-8"?>
<!DOCTYPE svg PUBLIC "-//W3C//DTD SVG 1.1//EN" "http://www.w3.org/Graphics/SVG/1.1/DTD/svg11.dtd">
<!-- Creator: CorelDRAW 2020 (64-Bit) -->
<svg xmlns="http://www.w3.org/2000/svg" xml:space="preserve" width="200px" height="198px" version="1.1" style="shape-rendering:geometricPrecision; text-rendering:geometricPrecision; image-rendering:optimizeQuality; fill-rule:evenodd; clip-rule:evenodd"
viewBox="0 0 200 198.27"
 xmlns:xlink="http://www.w3.org/1999/xlink"
 xmlns:xodm="http://www.corel.com/coreldraw/odm/2003">
 <defs>
  <style type="text/css">
   <![CDATA[
    .fil0 {fill:#F65E94}
   ]]>
  </style>
 </defs>
 <g id="Слой_x0020_1">
  <metadata id="CorelCorpID_0Corel-Layer"/>
  <path class="fil0" d="M89.31 92.06c0.84,-2.48 3.07,-4.32 5.76,-4.59 -12.46,-12.97 -13.66,-30.43 -7.2,-46.28 -12.53,-14.84 -31.9,-24.77 -56.54,-14.73 -8.51,31.18 18.56,69.4 57.98,65.6z"/>
  <path class="fil0" d="M91.7 99.7c-1.67,-1.24 -2.74,-3.23 -2.74,-5.47 0,-0.49 0.05,-0.96 0.15,-1.43 -16.19,7.84 -33.16,3.58 -46.23,-7.46 -17.99,7.34 -33.42,22.69 -31.49,49.23 27.03,17.72 71.75,3.79 80.31,-34.87z"/>
  <path class="fil0" d="M99.7 99.79c-1.11,0.79 -2.47,1.25 -3.94,1.25 -1.25,0 -2.41,-0.34 -3.42,-0.92 2.46,17.81 -6.83,32.64 -21.38,41.66 1.42,19.38 11.25,38.8 37.09,45.16 25.21,-20.22 25.78,-67.06 -8.35,-87.15z"/>
  <path class="fil0" d="M102.26 92.2c0.2,0.64 0.31,1.33 0.31,2.03 0,2.02 -0.88,3.83 -2.27,5.07 17.7,3.17 28.93,16.59 33.02,33.21 18.86,4.64 40.37,1.29 54.4,-21.32 -11.44,-30.22 -55.81,-45.23 -85.46,-18.99z"/>
  <path class="fil0" d="M95.84 87.43c2.74,0.03 5.1,1.69 6.15,4.05 8.48,-15.85 24.71,-22.38 41.78,-21.14 10.24,-16.5 13.7,-37.99 -3.46,-58.33 -32.28,1.55 -60.28,39.11 -44.47,75.42z"/>
  <path class="fil0" d="M145.71 0.86c23.3,25.84 20.52,53.35 4.29,70.28 20.75,3.76 41.48,18.58 50,41.75 -17.38,30.14 -44.4,36 -65.52,25.8 2.84,20.89 -4.85,45.19 -24.25,60.45 -34.04,-7.22 -47.96,-31.11 -44.78,-54.34 -18.99,9.15 -44.48,9.35 -64.99,-4.39 -3.65,-34.6 14.76,-55.22 37.84,-59.38 -14.57,-15.23 -22.63,-39.41 -15.91,-63.16 31.78,-14.17 57.09,-3.02 68.17,17.64 9.98,-18.57 30.49,-33.71 55.15,-34.65z"/>
 </g>
</svg>
